<svg width="761" height="178" viewBox="0 0 761 178" fill="none" xmlns="http://www.w3.org/2000/svg">
<path d="M-18.0554 160.969L0.339457 168.111L-18.0554 136.247L57.3949 83.8331L132.337 65.7591L215.455 68.1233L306.067 85.7035L353.076 119.765L402.129 150.531L472.983 156.574L527.487 145.586L555.42 129.105V119.765L538.387 129.105L492.741 145.586H417.117L344.9 95.5924L297.21 68.1233L192.291 58.2344L47.3949 76.1775L-28.0554 125.592L-31 141.191L-18.0554 160.969Z" fill="#329732"/>
<path opacity="0.1" d="M556.518 63.7285L529.598 73.6174L517.512 80.7594L507.074 92.8458L503.228 104.932L504.876 115.37L510.37 124.71L527.95 139.543L549.376 148.333L577.944 150.531L603.765 148.333L631.234 137.895L647.166 122.512L652.111 108.229L649.913 93.3952L627.938 73.6174L607.611 66.4754L586.734 63.7285H556.518Z" fill="url(#paint0_linear)"/>
<path d="M735.379 7.69141L615.302 64.5525L645.659 83.5062L711.094 53.2117H728.634V40.8604H746.848V27.9989H760.339V7.69141H735.379Z" fill="#BFBFBF"/>
<path d="M735.379 0L615.302 56.8611L645.659 75.8148L711.094 45.5203H728.634V33.169H746.848V20.3075H760.339V0H735.379Z" fill="#E5E5E5"/>
<path opacity="0.1" d="M636.179 53.8387L729.024 10.4375" stroke="black" stroke-width="2"/>
<path opacity="0.1" d="M659.253 49.4442L752.099 6.04297" stroke="black" stroke-width="2"/>
<path opacity="0.25" d="M609.809 52.7402L636.728 62.6291L648.815 69.7711L659.253 81.8575L663.099 93.9439L661.45 104.382L655.957 113.722L638.376 128.555L616.95 137.345L588.383 139.543L562.562 137.345L535.092 126.907L519.16 111.524L514.216 97.2402L516.413 82.4069L538.389 62.6291L558.716 55.4871L579.592 52.7402H609.809Z" fill="black"/>
<path d="M609.809 45.0488L636.728 54.9377L648.815 62.0797L659.253 74.1661L663.099 86.2525L661.45 96.6908L655.957 106.03L638.376 120.864L616.95 129.654L588.383 131.851L562.562 129.654L535.092 119.215L519.16 103.833L514.216 89.5488L516.413 74.7155L538.389 54.9377L558.716 47.7957L579.592 45.0488H609.809Z" fill="#E5E5E5"/>
<path d="M550.852 84.6055H562.217L571.417 88.856L575.747 96.7497L573.041 102.822L562.758 107.68H553.017L543.276 104.643L539.487 98.5714V93.7137L543.276 88.856L550.852 84.6055Z" fill="#BFBFBF"/>
<path d="M551.024 90.0996H562.561L571.901 93.9453L575.197 99.9885L573.549 103.285L563.111 107.68H553.222L543.333 104.933L540.586 100.538L543.333 93.9453L551.024 90.0996Z" fill="white"/>
<path opacity="0.1" d="M644.132 64.4419L633.022 58.1469L608.036 49.3457H579.949L560.544 51.7941L541.773 58.1183L521.603 75.5247L519.638 88.2399L524.103 100.608L538.71 114.131L564.14 123.397L588.129 125.355L614.676 123.397L634.474 115.609L650.698 102.482L655.655 94.4023L657.128 85.4577L653.667 75.0281L644.132 64.4419Z" stroke="black" stroke-width="2"/>
<path opacity="0.1" d="M605.328 56.0371L624.798 63.1721L633.539 68.3252L641.089 77.0458L643.87 85.7664L642.678 93.2978L638.705 100.036L625.99 110.739L553.674 63.1721L568.376 58.0191L583.475 56.0371H605.328Z" fill="black"/>
<path d="M493.474 68.123L556.071 96.0192L566.957 106.836L564.916 107.975H556.751L556.071 106.836L493.474 82.3558H393.456L266.222 148.396L168.245 178L0.5 168L-18.5 160.92H168.245L266.222 139.287L393.456 68.123H493.474Z" fill="#53BB53"/>
<defs>
<linearGradient id="paint0_linear" x1="553.771" y1="73.068" x2="522.313" y2="127.507" gradientUnits="userSpaceOnUse">
<stop/>
<stop offset="1" stop-opacity="0"/>
</linearGradient>
</defs>
</svg>
