<svg width="549" height="421" viewBox="0 0 549 421" fill="none" xmlns="http://www.w3.org/2000/svg">
<path opacity="0.15" d="M87.298 65.3814C80.6718 68.5953 76.5688 71.1703 74.5052 72.6924C74.4581 74.248 74.6804 76.7647 75.5178 80.2705C76.9888 86.4283 79.7185 93.0478 82.3376 98.2618L163.651 152.156L178.5 179.5L138.791 189.665L48.4022 129.756L45.7599 125.203C41.0927 117.159 34.9677 104.199 31.7492 90.7255C30.1381 83.9808 28.9836 76.0058 29.7345 67.9144C30.4957 59.7105 33.3959 49.9158 41.3111 42.0006C48.0012 35.3105 58.1511 29.5046 67.6597 24.8927C77.8406 19.9546 89.8238 15.1952 102.059 11.2062C114.278 7.2225 127.22 3.85294 139.314 1.88284C150.874 -0.000131607 163.792 -0.977993 174.935 1.4099C189.085 4.442 205.805 11.8049 219.743 18.7721C234.134 25.965 247.537 33.7514 255.665 38.8423C266.196 45.4387 269.385 59.3232 262.789 69.8543C256.193 80.3853 242.308 83.575 231.777 76.9786C224.738 72.5695 212.592 65.5059 199.624 59.0238C186.204 52.316 173.757 47.1789 165.507 45.411C162.65 44.7989 156.38 44.6961 146.549 46.2975C137.253 47.8117 126.601 50.5359 116.008 53.9898C105.431 57.4382 95.3827 61.4601 87.298 65.3814Z" fill="black"/>
<path opacity="0.45" d="M186.435 1.4099C200.585 4.442 217.305 11.8049 231.243 18.7721C216.995 15.3481 186.9 8.4 180.5 8C172.5 7.5 158.5 4.79384 147 8C137.8 10.5649 97.9398 20.3305 79.1597 24.8927C89.3406 19.9546 101.324 15.1952 113.559 11.2062C125.778 7.2225 138.72 3.85294 150.814 1.88284C162.374 -0.000131607 175.292 -0.977993 186.435 1.4099Z" fill="white"/>
<path opacity="0.1" d="M31.7492 92.8111C30.1381 86.0664 28.9836 78.0914 29.7345 70L56 125.426L138.791 179.5L169.976 185.426L137.791 194.751L48.4022 134.842L45.7599 130.288C45.4149 129.694 45.0619 129.072 44.7028 128.426C40.203 120.326 34.7298 105.289 31.7492 92.8111Z" fill="black"/>
<path opacity="0.1" d="M86.7928 66.8781C80.1666 70.3067 76.0636 73.0537 74 74.6775L74.1118 73.4359L79.4946 61.1365L139.995 35H171.995L212.995 54.7256L240.495 71.6498H262.284C255.688 82.8842 241.803 86.287 231.272 79.25C224.233 74.5464 212.086 67.0109 199.118 60.0959C185.699 52.9401 173.252 47.4598 165.001 45.5738C162.145 44.9209 155.875 44.8111 146.044 46.5195C136.748 48.1349 126.096 51.0411 115.503 54.7256C104.925 58.4044 94.8775 62.6949 86.7928 66.8781Z" fill="black"/>
<path opacity="0.1" d="M275.789 302L98.5 182.907L365.689 84L548 200.065L538.458 227.315L365.689 302H275.789Z" fill="black"/>
<path opacity="0.1" d="M177.789 420.999L0.5 301.907L103 264.434L276 381H369.639L267.689 420.999H177.789Z" fill="url(#paint0_linear)"/>
<path opacity="0.25" d="M277 381L100.5 263V184.5L277 298.5H366.5L538.5 227L548 200.5V280L538.5 307L366.5 381H277Z" fill="black"/>
<path d="M100.551 213.666L275.8 329.5H364.801L537.772 257.72L547.605 238.053V242.525L539.228 259.281L365.199 331.5H275.199L100.551 216.063V213.666Z" fill="black" fill-opacity="0.1"/>
<path d="M100.551 203.666L275.8 319.5H364.801L537.772 247.72L547.605 228.053V232.525L539.228 249.281L365.199 321.5H275.199L100.551 206.063V203.666Z" fill="black" fill-opacity="0.1"/>
<path d="M100.551 193.666L275.8 309.5H364.801L537.772 237.72L547.605 218.053V222.525L539.228 239.281L365.199 311.5H275.199L100.551 196.063V193.666Z" fill="black" fill-opacity="0.1"/>
<path d="M100.551 223.666L275.8 339.5H364.801L537.772 267.72L547.605 248.053V252.525L539.228 269.281L365.199 341.5H275.199L100.551 226.063V223.666Z" fill="black" fill-opacity="0.1"/>
<path d="M100.551 233.666L275.8 349.5H364.801L537.772 277.72L547.605 258.053V262.525L539.228 279.281L365.199 351.5H275.199L100.551 236.063V233.666Z" fill="black" fill-opacity="0.1"/>
<path d="M100.551 243.666L275.8 359.5H364.801L537.772 287.72L547.605 268.053V272.525L539.228 289.281L365.199 361.5H275.199L100.551 246.063V243.666Z" fill="black" fill-opacity="0.1"/>
<path d="M100.551 253.666L275.8 369.5H364.801L537.772 297.72L547.605 278.053V282.525L539.228 299.281L365.199 371.5H275.199L100.551 256.063V253.666Z" fill="black" fill-opacity="0.1"/>
<path d="M100.551 263.666L275.8 379.5H364.801L537.772 307.72L547.605 280.053V284.525L539.228 309.281L365.199 381.5H275.199L100.551 266.063V263.666Z" fill="black" fill-opacity="0.1"/>
<path opacity="0.06" d="M286.289 283L137.898 183.316L364.207 99.5384L529.422 202.111L525.037 214.254L363.744 283H286.289Z" stroke="black" stroke-width="10"/>
<path opacity="0.2" d="M548 200.065L538.458 227.315L98.5 182.907L365.689 84L548 200.065Z" fill="white"/>
<path opacity="0.2" d="M538 306V231.278L548.5 202.5V277.222L538 306Z" fill="#231F20"/>
<path opacity="0.2" d="M276 382V302.5L365.5 300L366.5 382H276Z" fill="white"/>
<mask id="mask0" mask-type="alpha" maskUnits="userSpaceOnUse" x="314" y="179" width="82" height="46">
<path d="M314 193C314 200.732 326.984 207 343 207C347.086 207 350.974 206.592 354.5 205.856L379.5 225L396 217.5L368.12 200C370.588 197.941 372 195.55 372 193C372 185.268 359.016 179 343 179C326.984 179 314 185.268 314 193Z" fill="black"/>
</mask>
<g mask="url(#mask0)">
<path opacity="0.2" d="M314 193C314 200.732 326.984 207 343 207C347.086 207 350.974 206.592 354.5 205.856L379.5 225L396 217.5L368.12 200C370.588 197.941 372 195.55 372 193C372 185.268 359.016 179 343 179C326.984 179 314 185.268 314 193Z" fill="black"/>
<path d="M314 201C314 208.732 326.984 215 343 215C347.086 215 350.974 214.592 354.5 213.856L374.75 227.428L389 221L368 208V200L372 201C372 193.268 359.016 187 343 187C326.984 187 314 193.268 314 201Z" fill="#767676"/>
</g>
<defs>
<linearGradient id="paint0_linear" x1="226" y1="217" x2="117.5" y2="384.5" gradientUnits="userSpaceOnUse">
<stop/>
<stop offset="1" stop-opacity="0"/>
</linearGradient>
</defs>
</svg>
